<?xml version="1.0" encoding="iso-8859-1"?>
<!-- Uploaded to: SVG Repo, www.svgrepo.com, Generator: SVG Repo Mixer Tools -->
<svg height="800px" width="800px" version="1.1" id="Layer_1" xmlns="http://www.w3.org/2000/svg" xmlns:xlink="http://www.w3.org/1999/xlink" 
	 viewBox="0 0 503.607 503.607" xml:space="preserve">
<g transform="translate(1 1)">
	<g>
		<path style="fill:#FFDD09;" d="M205.479,275.984L51.039,121.544l47.843-47.003L253.321,228.98L205.479,275.984z"/>
		<path style="fill:#FFDD09;" d="M205.479,181.138L359.918,26.698l47.003,47.843l-153.6,154.439L205.479,181.138z"/>
	</g>
	<g>
		<path style="fill:#FD9808;" d="M205.479,370.829L51.039,216.39l47.843-47.843l154.439,154.439L205.479,370.829z"/>
		<path style="fill:#FD9808;" d="M205.479,275.984l154.439-154.439l47.843,47.843L253.321,323.826L205.479,275.984z"/>
	</g>
	<g>
		<path style="fill:#FFDD09;" d="M205.479,465.675l-154.439-153.6l47.843-47.843l154.439,154.439L205.479,465.675z"/>
		<path style="fill:#FFDD09;" d="M205.479,370.829L359.918,216.39l47.843,47.843L253.321,418.672L205.479,370.829z"/>
		<path style="fill:#FFDD09;" d="M98.882,453.925l-40.289,40.289h80.577L98.882,453.925z"/>
	</g>
	<path style="fill:#FD9808;" d="M98.882,359.079l-47.843,47.843l87.292,87.292h95.685L98.882,359.079z"/>
	<g>
		<path style="fill:#FFDD09;" d="M271.787,494.213h94.846l40.289-40.289l-47.003-47.003L271.787,494.213z"/>
		<path style="fill:#FFDD09;" d="M447.21,494.213l-40.289-40.289l-39.449,40.289H447.21z"/>
	</g>
	<g>
		<path style="fill:#FD9808;" d="M284.377,7.393l-78.898,78.898l47.843,47.843L379.223,8.233h-94.846V7.393z"/>
		<path style="fill:#FD9808;" d="M51.039,26.698l154.439,154.439l47.843-47.843L127.42,7.393H70.344L51.039,26.698z"/>
		<path style="fill:#FD9808;" d="M205.479,465.675l28.538,28.538h38.61l135.134-135.134l-47.843-47.003L205.479,465.675z"/>
	</g>
	<g>
		<path style="fill:#FFDD09;" d="M208.836,82.934l75.541-75.541H126.58l75.541,75.541H208.836z"/>
		<path style="fill:#FFDD09;" d="M51.039,26.698L70.344,7.393H7.393v62.951L51.039,26.698z"/>
	</g>
	<path style="fill:#FD9808;" d="M7.393,165.19l91.489-90.649L51.039,26.698L7.393,70.344V165.19z"/>
	<path style="fill:#FFDD09;" d="M7.393,260.036l91.489-91.489l-47.843-47.843L7.393,165.19V260.036z"/>
	<path style="fill:#FD9808;" d="M7.393,355.721l91.489-91.488L51.039,216.39L7.393,260.036V355.721z"/>
	<path style="fill:#FFDD09;" d="M7.393,450.567l91.489-91.488l-47.843-47.843L7.393,355.721V450.567z"/>
	<g>
		<path style="fill:#FD9808;" d="M51.039,406.921L7.393,450.567v43.646h51.2l40.289-40.289L51.039,406.921z"/>
		<path style="fill:#FD9808;" d="M494.213,66.148L435.459,7.393h-56.236l-19.305,19.305l134.295,134.295V66.148z"/>
	</g>
	<path style="fill:#FFDD09;" d="M494.213,161.833l-87.292-87.292l-47.003,47.003l134.295,134.295V161.833z"/>
	<path style="fill:#FD9808;" d="M494.213,256.679l-87.292-87.292l-47.003,47.003l134.295,134.295V256.679z"/>
	<path style="fill:#FFDD09;" d="M494.213,351.525l-87.292-87.292l-47.003,47.843L494.213,446.37V351.525z"/>
	<path style="fill:#FD9808;" d="M406.921,359.079l-47.003,47.843l87.292,87.292h47.003V446.37L406.921,359.079z"/>
	<path style="fill:#FFDD09;" d="M435.459,7.393l58.754,58.754V7.393H435.459z"/>
	<path style="fill:#FD9808;" d="M477.426,494.213h16.787V7.393h-16.787V494.213z"/>
	<path style="fill:#FFFFFF;" d="M7.393,494.213H24.18V7.393H7.393V494.213z"/>
	<path d="M205.479,284.377c-2.518,0-4.197-0.839-5.875-2.518L45.164,127.42c-1.679-1.679-2.518-3.357-2.518-5.875
		s0.839-4.197,2.518-5.875l47.843-47.843c3.357-3.357,8.393-3.357,11.751,0l154.439,155.279c3.357,3.357,3.357,8.393,0,11.751
		l-47.843,47.843C209.675,283.538,207.997,284.377,205.479,284.377z M62.79,121.544l142.689,142.689l35.252-35.252L98.043,86.292
		L62.79,121.544z"/>
	<path d="M253.321,237.374c-2.518,0-4.197-0.839-5.875-2.518l-47.843-47.843c-3.357-3.357-3.357-8.393,0-11.751L354.043,20.823
		c1.679-1.679,3.357-2.518,5.875-2.518l0,0c2.518,0,4.197,0.839,5.875,2.518l47.843,47.843c3.357,3.357,3.357,8.393,0,11.751
		L259.197,234.856C257.518,236.534,255,237.374,253.321,237.374z M217.229,181.138l35.252,35.252L395.17,73.702l-35.252-35.252
		L217.229,181.138z"/>
	<path d="M205.479,379.223c-2.518,0-4.197-0.839-5.875-2.518l-154.439-153.6c-1.679-1.679-2.518-3.357-2.518-5.875
		c0-2.518,0.839-4.197,2.518-5.875l47.843-47.843c3.357-3.357,8.393-3.357,11.751,0l154.439,154.439
		c1.679,1.679,2.518,3.357,2.518,5.875c0,2.518-0.839,4.197-2.518,5.875l-47.843,47.003
		C209.675,378.384,207.997,379.223,205.479,379.223z M62.79,216.39l142.689,142.689l35.252-35.252L98.043,181.138L62.79,216.39z"/>
	<path d="M253.321,332.22c-2.518,0-4.197-0.839-5.875-2.518l-47.843-47.843c-3.357-3.357-3.357-8.393,0-11.751l154.439-154.439
		c3.357-3.357,8.393-3.357,11.751,0l47.843,47.843c3.357,3.357,3.357,8.393,0,11.751L259.197,329.702
		C257.518,331.38,255,332.22,253.321,332.22z M217.229,275.984l35.252,35.252L395.17,168.548l-35.252-35.252L217.229,275.984z"/>
	<path d="M205.479,474.069c-2.518,0-4.197-0.839-5.875-2.518l-154.439-153.6c-1.679-1.679-2.518-3.357-2.518-5.875
		c0-2.518,0.839-4.197,2.518-5.875l47.843-47.843c3.357-3.357,8.393-3.357,11.751,0l154.439,154.439
		c3.357,3.357,3.357,8.393,0,11.751l-47.843,47.843C209.675,473.229,207.997,474.069,205.479,474.069z M62.79,312.075
		l142.689,142.689l35.252-35.252L98.043,276.823L62.79,312.075z"/>
	<path d="M253.321,427.066c-2.518,0-4.197-0.839-5.875-2.518l-47.843-47.843c-3.357-3.357-3.357-8.393,0-11.751l154.439-154.439
		c1.679-1.679,3.357-2.518,5.875-2.518l0,0c2.518,0,4.197,0.839,5.875,2.518l47.843,47.843c3.357,3.357,3.357,8.393,0,11.751
		L259.197,424.548C257.518,426.226,255,427.066,253.321,427.066z M217.229,370.829l35.252,35.252L395.17,263.393l-35.252-34.413
		L217.229,370.829z"/>
	<path d="M138.331,502.607H58.593c-3.357,0-6.715-1.679-7.554-5.036s-0.839-6.715,1.679-9.233l40.289-40.289
		c3.357-3.357,8.393-3.357,11.751,0l40.289,40.289c2.518,2.518,3.357,5.875,1.679,9.233
		C145.046,500.928,141.689,502.607,138.331,502.607z M78.738,485.82h39.449l-20.144-20.144L78.738,485.82z"/>
	<path d="M234.016,502.607h-95.685c-2.518,0-4.197-0.839-5.875-2.518l-87.292-87.292c-1.679-1.679-2.518-3.357-2.518-5.875
		c0-2.518,0.839-4.197,2.518-5.875l47.843-47.843c3.357-3.357,8.393-3.357,11.751,0l135.134,135.134
		c2.518,2.518,3.357,5.875,1.679,9.233S237.374,502.607,234.016,502.607z M142.528,485.82h71.344l-114.99-114.99L63.63,406.082
		L142.528,485.82z"/>
	<path d="M367.472,502.607h-95.685c-3.357,0-6.715-1.679-7.554-5.036c-1.679-3.357-0.839-6.715,1.679-9.233l87.292-87.292
		c3.357-3.357,8.393-3.357,11.751,0l47.843,47.843c3.357,3.357,3.357,8.393,0,11.751l-40.289,40.289
		C371.669,501.767,369.151,502.607,367.472,502.607z M292.77,485.82h71.344l31.895-31.895l-36.092-35.252L292.77,485.82z"/>
	<path d="M447.21,502.607h-79.738c-3.357,0-6.715-1.679-7.554-5.036c-0.839-3.357-0.839-6.715,1.679-9.233l40.289-40.289
		c3.357-3.357,8.393-3.357,11.751,0l40.289,40.289c2.518,2.518,3.357,5.875,1.679,9.233
		C453.925,500.928,450.567,502.607,447.21,502.607z M387.616,485.82h39.449l-20.144-20.144L387.616,485.82z"/>
	<path d="M253.321,141.689c-2.518,0-4.197-0.839-5.875-2.518l-47.843-47.843c-3.357-3.357-3.357-8.393,0-11.751l78.898-78.898
		C280.18-0.161,281.859-1,284.377-1h94.846c3.357,0,6.715,1.679,7.554,5.036c1.679,3.357,0.839,6.715-1.679,9.233L259.197,139.17
		C257.518,140.849,255,141.689,253.321,141.689z M217.229,86.292l35.252,35.252L359.079,15.787h-71.344L217.229,86.292z"/>
	<path d="M205.479,189.531c-2.518,0-4.197-0.839-5.875-2.518L45.164,32.574c-1.679-1.679-2.518-3.357-2.518-5.875
		s0.839-4.197,2.518-5.875L64.469,1.518C66.148-0.161,68.666-1,70.344-1h56.236c2.518,0,4.197,0.839,5.875,2.518L258.357,127.42
		c1.679,1.679,2.518,3.357,2.518,5.875s-0.839,4.197-2.518,5.875l-47.843,47.843C209.675,188.692,207.997,189.531,205.479,189.531z
		 M62.79,26.698l142.689,142.689l35.252-35.252L123.223,16.626H73.702L62.79,26.698z"/>
	<path d="M271.787,502.607h-37.77c-2.518,0-4.197-0.839-5.875-2.518l-28.538-28.538c-1.679-1.679-2.518-3.357-2.518-5.875
		c0-2.518,0.839-4.197,2.518-5.875l154.439-154.439c1.679-1.679,3.357-2.518,5.875-2.518l0,0c2.518,0,4.197,0.839,5.875,2.518
		l47.843,47.843c3.357,3.357,3.357,8.393,0,11.751L278.502,500.089C276.823,501.767,274.305,502.607,271.787,502.607z
		 M237.374,485.82h31.895L396.01,359.079l-36.092-35.252L217.229,466.515L237.374,485.82z"/>
	<path d="M208.836,91.328h-6.715c-2.518,0-4.197-0.839-5.875-2.518l-75.541-75.541c-2.518-2.518-3.357-5.875-1.679-9.233
		C119.866,0.679,123.223-1,126.58-1h157.797c3.357,0,6.715,1.679,7.554,5.036c1.679,3.357,0.839,6.715-1.679,9.233L214.711,88.81
		C213.033,90.489,210.515,91.328,208.836,91.328z M146.725,15.787l58.754,58.754l58.754-58.754H146.725z"/>
	<path d="M7.393,78.738c-0.839,0-2.518,0-3.357-0.839C1.518,77.059-1,73.702-1,70.344V7.393C-1,2.357,2.357-1,7.393-1h62.951
		c3.357,0,6.715,1.679,7.554,5.036c1.679,3.357,0.839,6.715-1.679,9.233L13.269,76.22C11.59,77.898,9.911,78.738,7.393,78.738z
		 M15.787,15.787V50.2l29.377-29.377l0,0l5.036-5.036H15.787z"/>
	<path d="M7.393,173.584c-0.839,0-2.518,0-3.357-0.839C1.518,171.905-1,168.548-1,165.19V70.344c0-2.518,0.839-4.197,2.518-5.875
		l43.646-43.646c3.357-3.357,8.393-3.357,11.751,0l47.843,47.843c1.679,1.679,2.518,3.357,2.518,5.875s-0.839,4.197-2.518,5.875
		l-91.489,90.649C11.59,172.744,9.911,173.584,7.393,173.584z M15.787,73.702v71.344l71.344-70.505L51.039,38.449L15.787,73.702z"/>
	<path d="M7.393,268.43c-0.839,0-2.518,0-3.357-0.839C1.518,266.751-1,263.393-1,260.036V165.19c0-2.518,0.839-4.197,2.518-5.875
		l43.646-43.646c3.357-3.357,8.393-3.357,11.751,0l47.843,47.843c1.679,1.679,2.518,3.357,2.518,5.875
		c0,2.518-0.839,4.197-2.518,5.875l-91.489,90.649C11.59,267.59,9.911,268.43,7.393,268.43z M15.787,168.548v71.344l70.505-70.505
		l-35.252-36.092L15.787,168.548z"/>
	<path d="M7.393,364.115c-0.839,0-2.518,0-3.357-0.839C1.518,361.597-1,359.079-1,355.721v-95.685c0-2.518,0.839-4.197,2.518-5.875
		l43.646-43.646c3.357-3.357,8.393-3.357,11.751,0l47.843,47.843c1.679,1.679,2.518,3.357,2.518,5.875s-0.839,4.197-2.518,5.875
		l-91.489,91.488C11.59,362.436,9.911,364.115,7.393,364.115z M15.787,264.233v70.505l70.505-70.505L51.039,228.98L15.787,264.233z"
		/>
	<path d="M7.393,458.961c-0.839,0-2.518,0-3.357-0.839C1.518,456.443-1,453.925-1,450.567v-94.846c0-2.518,0.839-4.197,2.518-5.875
		L45.164,306.2c3.357-3.357,8.393-3.357,11.751,0l47.843,47.843c1.679,1.679,2.518,3.357,2.518,5.875
		c0,2.518-0.839,4.197-2.518,5.875l-91.489,90.649C11.59,458.121,9.911,458.961,7.393,458.961z M15.787,359.079v71.344
		l70.505-70.505l-35.252-35.252L15.787,359.079z"/>
	<path d="M58.593,502.607h-51.2c-5.036,0-8.393-3.357-8.393-8.393v-43.646c0-2.518,0.839-4.197,2.518-5.875l43.646-43.646
		c3.357-3.357,8.393-3.357,11.751,0l47.843,47.843c1.679,1.679,2.518,3.357,2.518,5.875c0,2.518-0.839,4.197-2.518,5.875
		l-40.289,40.289C62.79,501.767,61.111,502.607,58.593,502.607z M15.787,485.82h39.449l31.895-31.895l-36.092-35.252l-35.252,35.252
		V485.82z"/>
	<path d="M494.213,170.226c-2.518,0-4.197-0.839-5.875-2.518L354.043,33.413c-3.357-3.357-3.357-8.393,0-11.751l19.305-19.305
		C375.026-0.161,376.705-1,379.223-1h56.236c2.518,0,4.197,0.839,5.875,2.518l58.754,58.754c1.679,1.679,2.518,4.197,2.518,5.875
		v94.846c0,3.357-1.679,6.715-5.036,7.554C496.731,169.387,495.052,170.226,494.213,170.226z M371.669,26.698L485.82,140.849V70.344
		l-53.718-54.557H382.58L371.669,26.698z"/>
	<path d="M494.213,265.072c-2.518,0-4.197-0.839-5.875-2.518L354.043,128.259c-3.357-3.357-3.357-8.393,0-11.751l47.003-47.843
		c1.679-1.679,4.197-2.518,5.875-2.518l0,0c2.518,0,4.197,0.839,5.875,2.518l87.292,87.292c1.679,1.679,2.518,3.357,2.518,5.875
		v94.846c0,3.357-1.679,6.715-5.036,7.554C496.731,264.233,495.052,265.072,494.213,265.072z M371.669,121.544l114.151,114.99
		V165.19l-78.898-78.898L371.669,121.544z"/>
	<path d="M494.213,359.918c-2.518,0-4.197-0.839-5.875-2.518L354.043,223.105c-3.357-3.357-3.357-8.393,0-11.751l47.003-47.843
		c1.679-1.679,3.357-2.518,5.875-2.518l0,0c2.518,0,4.197,0.839,5.875,2.518l87.292,87.292c1.679,1.679,2.518,3.357,2.518,5.875
		v94.846c0,3.357-1.679,6.715-5.036,7.554C496.731,359.918,495.052,359.918,494.213,359.918z M371.669,216.39L485.82,331.38v-71.344
		l-78.898-78.898L371.669,216.39z"/>
	<path d="M494.213,454.764c-2.518,0-4.197-0.839-5.875-2.518L354.043,317.951c-3.357-3.357-3.357-8.393,0-11.751l47.003-47.843
		c1.679-1.679,3.357-2.518,5.875-2.518l0,0c2.518,0,4.197,0.839,5.875,2.518l87.292,87.292c1.679,1.679,2.518,3.357,2.518,5.875
		v94.846c0,3.357-1.679,6.715-5.036,7.554C496.731,454.764,495.052,454.764,494.213,454.764z M371.669,312.075L485.82,426.226
		v-71.344l-78.898-78.898L371.669,312.075z"/>
	<path d="M494.213,502.607H447.21c-2.518,0-4.197-0.839-5.875-2.518l-87.292-87.292c-3.357-3.357-3.357-8.393,0-11.751
		l47.003-47.843c1.679-1.679,3.357-2.518,5.875-2.518l0,0c2.518,0,4.197,0.839,5.875,2.518l87.292,87.292
		c1.679,1.679,2.518,3.357,2.518,5.875v47.843C502.607,499.249,499.249,502.607,494.213,502.607z M450.567,485.82h35.252v-36.092
		l-78.898-78.898l-35.252,36.092L450.567,485.82z"/>
	<path d="M494.213,74.541c-2.518,0-4.197-0.839-5.875-2.518l-58.754-58.754c-2.518-2.518-3.357-5.875-1.679-9.233
		C428.744,0.679,432.102-1,435.459-1h58.754c5.036,0,8.393,3.357,8.393,8.393v58.754c0,3.357-1.679,6.715-5.036,7.554
		C496.731,74.541,495.052,74.541,494.213,74.541z M455.603,15.787l30.216,30.216V15.787H455.603z"/>
</g>
</svg>